<?xml version="1.0" standalone="no"?>
<!DOCTYPE svg PUBLIC "-//W3C//DTD SVG 20010904//EN"
 "http://www.w3.org/TR/2001/REC-SVG-20010904/DTD/svg10.dtd">
<svg version="1.0" xmlns="http://www.w3.org/2000/svg"
 width="971.000000pt" height="971.000000pt" viewBox="0 0 971.000000 971.000000"
 preserveAspectRatio="xMidYMid meet">
<metadata>
Created by potrace 1.14, written by Peter Selinger 2001-2017
</metadata>
<g transform="translate(0.000000,971.000000) scale(0.100000,-0.100000)"
fill="#000000" stroke="none">
<path d="M4615 9674 c-1620 -89 -3069 -959 -3899 -2343 -365 -608 -588 -1283
-662 -2006 -24 -235 -24 -705 0 -940 127 -1238 701 -2351 1630 -3163 759 -663
1683 -1063 2701 -1168 235 -24 705 -24 940 0 291 30 578 84 835 156 1618 458
2882 1722 3340 3340 121 431 174 822 174 1305 0 324 -15 518 -60 785 -150 896
-534 1708 -1126 2386 -809 926 -1935 1507 -3153 1629 -156 15 -580 26 -720 19z"/>
</g>
</svg>
